# xmcd
#
# Track frame offsets: 
#        150
#        24405
#        41702
#        53572
#        70407
#        87597
#        102897
#        121980
#        140897
#        158865
#
# Disc length: 2371 seconds
#
# Revision: 3
# Processed by: cddbd v1.5.2PL0 Copyright (c) Steve Scherf et al.
# Submitted via: ExactAudioCopyFreeDBPlugin 1.0
#
DISCID=8a09410a
DTITLE=Alberta Hunter - Amtrak Blues
DYEAR=1980
DGENRE=Blues
TTITLE0=The Darktown Strutters Ball
TTITLE1=Nobody Knows You When You're Down And Out
TTITLE2=I'm Having A Good Time
TTITLE3=Always
TTITLE4=My Handy Man Ain't Handy No More
TTITLE5=Amtrak Blues
TTITLE6=Old Fashioned Blues
TTITLE7=Sweet Georgia Brown
TTITLE8=A Good Man Is Hard To Find
TTITLE9=I've Got A Mind To Ramble
EXTD=
EXTT0=
EXTT1=
EXTT2=
EXTT3=
EXTT4=
EXTT5=
EXTT6=
EXTT7=
EXTT8=
EXTT9=
PLAYORDER=
